<svg width="50" height="50" viewBox="0 0 50 50" fill="none" xmlns="http://www.w3.org/2000/svg">
<path d="M20.4167 37.3333C19.2708 37.3333 18.2899 36.9254 17.474 36.1094C16.658 35.2934 16.25 34.3125 16.25 33.1667V30.5625C14.2708 29.2083 12.7344 27.4722 11.6406 25.3542C10.5469 23.2361 10 20.9792 10 18.5833C10 14.5208 11.4149 11.0747 14.2448 8.24479C17.0747 5.41493 20.5208 4 24.5833 4C28.6458 4 32.092 5.41493 34.9219 8.24479C37.7517 11.0747 39.1667 14.5208 39.1667 18.5833C39.1667 20.9792 38.6198 23.2274 37.526 25.3281C36.4323 27.4288 34.8958 29.1736 32.9167 30.5625V33.1667C32.9167 34.3125 32.5087 35.2934 31.6927 36.1094C30.8767 36.9254 29.8958 37.3333 28.75 37.3333H20.4167ZM20.4167 33.1667H28.75V28.375L30.5208 27.125C31.9444 26.1528 33.0469 24.9115 33.8281 23.401C34.6094 21.8906 35 20.2847 35 18.5833C35 15.7014 33.9844 13.2448 31.9531 11.2135C29.9219 9.18229 27.4653 8.16667 24.5833 8.16667C21.7014 8.16667 19.2448 9.18229 17.2135 11.2135C15.1823 13.2448 14.1667 15.7014 14.1667 18.5833C14.1667 20.2847 14.5573 21.8906 15.3385 23.401C16.1198 24.9115 17.2222 26.1528 18.6458 27.125L20.4167 28.375V33.1667ZM20.4167 45.6667C19.8264 45.6667 19.3316 45.467 18.9323 45.0677C18.533 44.6684 18.3333 44.1736 18.3333 43.5833V41.5H30.8333V43.5833C30.8333 44.1736 30.6337 44.6684 30.2344 45.0677C29.8351 45.467 29.3403 45.6667 28.75 45.6667H20.4167Z" fill="white"/>
</svg>
